<svg xmlns="http://www.w3.org/2000/svg" aria-hidden="true" style="position:absolute;width:0;height:0;overflow:hidden"><defs><symbol id="icon-group-1-1" viewBox="0 0 64 32"><path fill="#8e8f99" d="m1.28 0 1.495 1.424L0 1.423v6.91h7.253V5.691l1.493 1.423V0H1.279zm5.908 5.524L2.949 1.486h4.239v4.038zM5.872 7.322H1.148V2.675h.334v4.333h4.39v.315zM2.09 9.613l-.176-.362h-.145l.255.479v.279h.132V9.73l.255-.479h-.145l-.176.362zm.649-.362h.031l.287.758H2.92l-.061-.178h-.294l-.061.178h-.137l.285-.758h.087zm-.139.477h.222l-.111-.322-.111.322zm.916-.125-.013-.016-.003-.005a.375.375 0 0 1-.044-.072l-.001-.002a.208.208 0 0 1 .008-.177.158.158 0 0 1 .068-.065h.001a.22.22 0 0 1 .105-.023c.039 0 .072.008.1.023a.163.163 0 0 1 .074.211v-.001a.189.189 0 0 1-.036.054.38.38 0 0 1-.052.046l-.001.001-.053.038.15.177a.29.29 0 0 0 .033-.136V9.65h.108a.505.505 0 0 1-.011.105.314.314 0 0 1-.056.126l.001-.001.111.131H3.86l-.044-.052a.28.28 0 0 1-.076.042l-.002.001a.35.35 0 0 1-.115.02H3.62a.284.284 0 0 1-.131-.028.213.213 0 0 1-.085-.075l-.001-.001a.205.205 0 0 1-.03-.107v-.004c0-.031.006-.058.019-.081s.03-.046.053-.066a.857.857 0 0 1 .07-.056zm.062.076-.016.011a.186.186 0 0 0-.041.043v.001a.128.128 0 0 0-.007.129v-.001c.01.018.024.033.042.043h.001c.019.01.041.016.064.016h.004a.19.19 0 0 0 .123-.043h-.001l-.169-.198zm.03-.139.046-.031a.189.189 0 0 0 .047-.042.092.092 0 0 0 .014-.05v-.004a.075.075 0 0 0-.075-.073h-.007a.077.077 0 0 0-.07.044.106.106 0 0 0 .004.093v-.001a.316.316 0 0 0 .033.052l.009.011zm1.327.223h-.13a.239.239 0 0 1-.024.085l.001-.001a.122.122 0 0 1-.052.051h-.001a.197.197 0 0 1-.082.018h-.012a.158.158 0 0 1-.075-.019h.001a.156.156 0 0 1-.054-.051v-.001a.255.255 0 0 1-.031-.078v-.002a.521.521 0 0 1-.01-.1v-.068c0-.041.004-.076.011-.108s.019-.058.034-.08a.152.152 0 0 1 .055-.049h.001a.164.164 0 0 1 .074-.017h.004c.036 0 .066.006.089.019s.039.03.051.053a.245.245 0 0 1 .023.084h.13a.34.34 0 0 0-.043-.136l.001.002a.243.243 0 0 0-.096-.092l-.001-.001a.32.32 0 0 0-.143-.034h-.01c-.048 0-.09.009-.129.025s-.07.041-.098.073a.335.335 0 0 0-.062.111l-.001.002a.485.485 0 0 0-.021.148v.063c0 .054.007.104.021.148s.035.082.061.113a.282.282 0 0 0 .223.097c.061 0 .113-.011.156-.033s.076-.053.099-.091a.306.306 0 0 0 .042-.133zm.723-.112v-.042a.462.462 0 0 0-.023-.154.332.332 0 0 0-.064-.117.283.283 0 0 0-.098-.073l-.002-.001c-.038-.017-.081-.026-.128-.026s-.089.009-.128.026a.297.297 0 0 0-.164.189.458.458 0 0 0-.023.147v.049c0 .057.008.109.023.154s.037.083.066.117a.286.286 0 0 0 .227.099c.047 0 .09-.009.128-.025s.072-.042.099-.074c.028-.032.049-.07.064-.116s.022-.097.022-.154zm-.13-.042v.043c0 .042-.004.08-.013.113a.243.243 0 0 1-.036.084l.001-.001a.167.167 0 0 1-.056.05h-.001a.164.164 0 0 1-.074.017h-.007a.172.172 0 0 1-.075-.017h.001a.156.156 0 0 1-.058-.05v-.001a.248.248 0 0 1-.036-.081v-.002a.448.448 0 0 1-.013-.107V9.608c0-.042.004-.08.013-.112s.02-.06.036-.082a.161.161 0 0 1 .057-.05h.001a.164.164 0 0 1 .074-.017h.003c.029 0 .055.006.078.017s.042.028.058.05c.016.022.028.049.036.082s.013.07.013.112z" style="fill:var(--color1, #8e8f99)"/></symbol><symbol id="icon-group-1" viewBox="0 0 59 32"><path fill="#8e8f99" d="m21.714 4 4.005 3.815-7.433-.003v18.509h19.429v-7.077l4 3.811V4.001h-20zm15.824 14.795L26.184 7.978h11.354v10.817zm-3.525 4.818H21.36V11.165h.894v11.606h11.759v.843zm-10.13 6.137-.471-.97h-.389l.683 1.283v.748h.353v-.748l.684-1.283h-.388l-.471.97zm1.739-.971h.083l.767 2.031h-.368l-.165-.475h-.786l-.164.475h-.367l.765-2.031h.234zm-.373 1.279h.595l-.297-.862-.297.862zm2.455-.337-.035-.044-.009-.013a1.04 1.04 0 0 1-.119-.193l-.003-.006a.546.546 0 0 1 .022-.474.44.44 0 0 1 .183-.175l.003-.001a.596.596 0 0 1 .28-.063c.103 0 .193.021.267.063a.439.439 0 0 1 .199.565l.001-.003a.511.511 0 0 1-.097.145 1.082 1.082 0 0 1-.139.123l-.003.002-.141.103.402.474a.796.796 0 0 0 .088-.365v-.015.001h.29c0 .099-.01.192-.029.28a.873.873 0 0 1-.15.338l.002-.002.297.351h-.389l-.118-.139a.786.786 0 0 1-.203.113l-.005.002a.921.921 0 0 1-.308.053h-.008a.779.779 0 0 1-.35-.074.554.554 0 0 1-.227-.201l-.001-.002a.553.553 0 0 1-.08-.288v-.01c0-.083.017-.155.051-.217a.722.722 0 0 1 .141-.177c.055-.05.118-.099.189-.149zm.167.204-.042.03a.512.512 0 0 0-.109.114l-.001.002a.334.334 0 0 0-.018.345l-.001-.002a.295.295 0 0 0 .112.115l.001.001c.05.027.109.042.172.042h.011-.001a.527.527 0 0 0 .329-.117l-.001.001-.451-.531zm.08-.371.125-.083a.468.468 0 0 0 .125-.113l.001-.001a.25.25 0 0 0 .038-.133v-.01a.203.203 0 0 0-.202-.196h-.012.001-.006a.207.207 0 0 0-.187.119l-.001.001a.288.288 0 0 0 .01.25l-.001-.002c.021.044.05.09.088.138l.023.03zm3.554.596h-.349a.635.635 0 0 1-.066.228l.002-.004a.317.317 0 0 1-.139.137l-.002.001a.522.522 0 0 1-.22.048h-.022.001-.012a.429.429 0 0 1-.202-.05l.002.001a.403.403 0 0 1-.144-.137l-.001-.002a.677.677 0 0 1-.083-.209l-.001-.004a1.322 1.322 0 0 1-.027-.268v-.011.001-.171c0-.109.01-.204.029-.288a.64.64 0 0 1 .091-.213.395.395 0 0 1 .146-.13l.002-.001a.457.457 0 0 1 .198-.045h.012-.001c.097 0 .177.017.237.05s.106.08.137.143a.65.65 0 0 1 .061.224h.349a.858.858 0 0 0-.117-.365l.002.004a.648.648 0 0 0-.256-.245l-.003-.002a.849.849 0 0 0-.384-.09h-.027.001c-.127 0-.242.023-.345.067s-.189.109-.261.194a.871.871 0 0 0-.166.296l-.002.006c-.038.118-.057.25-.057.396v.169c0 .146.019.278.056.396s.093.219.165.303a.745.745 0 0 0 .597.26c.163 0 .303-.03.417-.089s.203-.141.266-.245a.793.793 0 0 0 .111-.355zm1.937-.299v-.111c0-.153-.02-.291-.061-.411a.906.906 0 0 0-.172-.313l.001.001a.74.74 0 0 0-.262-.195l-.005-.002a.83.83 0 0 0-.343-.069.83.83 0 0 0-.342.069.746.746 0 0 0-.267.197.946.946 0 0 0-.173.311 1.26 1.26 0 0 0-.062.393v.019-.001.111c0 .154.021.291.062.413.04.12.1.223.176.312l-.001-.001a.776.776 0 0 0 .608.264c.125 0 .24-.023.343-.067a.736.736 0 0 0 .265-.197c.074-.086.131-.189.171-.311s.06-.259.06-.413zm-.349-.114v.114c0 .114-.011.214-.034.302a.664.664 0 0 1-.096.224l.002-.002a.413.413 0 0 1-.151.134l-.002.001a.462.462 0 0 1-.199.045h-.019a.453.453 0 0 1-.201-.046l.003.001a.448.448 0 0 1-.155-.134l-.001-.001a.658.658 0 0 1-.097-.217l-.001-.005a1.168 1.168 0 0 1-.034-.286v-.017.001-.114c0-.113.011-.213.034-.3s.054-.16.096-.219a.426.426 0 0 1 .153-.133l.002-.001a.445.445 0 0 1 .199-.046h.008c.077 0 .146.015.208.046s.113.074.154.134a.614.614 0 0 1 .097.219c.023.087.034.187.034.3z" style="fill:var(--color1, #8e8f99)"/></symbol></defs></svg>